<!DOCTYPE svg PUBLIC "-//W3C//DTD SVG 1.1//EN" "http://www.w3.org/Graphics/SVG/1.1/DTD/svg11.dtd">

<!-- Uploaded to: SVG Repo, www.svgrepo.com, Transformed by: SVG Repo Mixer Tools -->
<svg version="1.1" id="Uploaded to svgrepo.com" xmlns="http://www.w3.org/2000/svg" xmlns:xlink="http://www.w3.org/1999/xlink" viewBox="0 0 32 32" xml:space="preserve" fill="#000000"><g id="SVGRepo_bgCarrier" stroke-width="0"></g><g id="SVGRepo_iconCarrier"> <style type="text/css"> .pictogram_een{fill:#778e9a;} .pictogram_drie{fill:#594f72;} .pictogram_vier{fill:#f8ad89;} .st0{fill:#01A59C;} .st1{fill:#0C6667;} .st2{fill:#F8AD89;} .st3{fill:none;} .st4{clip-path:url(#SVGID_4_);fill:#778e9a;} .st5{clip-path:url(#SVGID_6_);fill:#594f72;} .st6{clip-path:url(#SVGID_6_);fill:none;} .st7{clip-path:url(#SVGID_8_);fill:#594f72;} .st8{clip-path:url(#SVGID_8_);fill:none;} .st9{fill:#778e9a;} </style> <g> <path class="pictogram_drie" d="M29,32H3c-1.657,0-3-1.343-3-3V3c0-1.657,1.343-3,3-3h26c1.657,0,3,1.343,3,3v26 C32,30.657,30.657,32,29,32z"></path> <path class="pictogram_een" d="M24,18.321v9.257c-3.34-1.974-1.518-0.897-6.055-3.578H17v-4.261c1.221-1.01,2-2.535,2-4.239 s-0.779-3.23-2-4.239v-3.5c2.946,1.335,5,4.295,5,7.74c0,1.847-0.596,3.552-1.596,4.946C21.71,19.674,21.12,20.023,24,18.321z M13.5,21c-1.173,0-2.259-0.372-3.152-1H11.5c0.828,0,1.5-0.672,1.5-1.5S12.328,17,11.5,17H8.213c-0.092-0.323-0.157-0.656-0.188-1 H11.5c0.828,0,1.5-0.672,1.5-1.5S12.328,13,11.5,13H8.607c0.912-1.778,2.761-3,4.893-3c0.169,0,0.335,0.01,0.5,0.025v-3 C13.834,7.016,13.669,7,13.5,7C11.401,7,9.483,7.765,8,9.026V7H5v9h0.025c0.25,4.294,3.681,7.724,7.975,7.975V24h1v-3.025 C13.835,20.99,13.669,21,13.5,21z"></path> <path class="pictogram_vier" d="M28,27.899c0,1.1-0.9,2-2,2l0,0c-1.1,0-2-0.9-2-2V18c0-1.1,0.9-2,2-2l0,0c1.1,0,2,0.9,2,2V27.899z M10,5.02V4.98C10,3.886,9.114,3,8.02,3H4.98C3.886,3,3,3.886,3,4.98v0.04C3,6.114,3.886,7,4.98,7h3.04C9.114,7,10,6.114,10,5.02z"></path> </g> </g></svg>