<!DOCTYPE svg PUBLIC "-//W3C//DTD SVG 1.1//EN" "http://www.w3.org/Graphics/SVG/1.1/DTD/svg11.dtd">
<!-- Uploaded to: SVG Repo, www.svgrepo.com, Transformed by: SVG Repo Mixer Tools -->
<svg version="1.1" id="Uploaded to svgrepo.com" xmlns="http://www.w3.org/2000/svg" xmlns:xlink="http://www.w3.org/1999/xlink" width="800px" height="800px" viewBox="0 0 32 32" xml:space="preserve" fill="#000000">
<g id="SVGRepo_bgCarrier" stroke-width="0"/>
<g id="SVGRepo_iconCarrier"> <style type="text/css"> .pictogram_een{fill:#778e9a;} .pictogram_twee{fill:#F8AD89;} .pictogram_drie{fill:#d7474a;} .pictogram_vijf{fill:#fbca97;} .pictogram_zes{fill:#cd7363;} .st0{fill:#d12300;} .st1{fill:none;} .st2{fill:#F8AD89;} .st3{fill:#cd7363;} </style> <g> <path class="pictogram_vijf" d="M3,0l26,0c1.657,0,3,1.343,3,3v26c0,1.657-1.343,3-3,3H3c-1.657,0-3-1.343-3-3L0,3 C0,1.343,1.343,0,3,0z"/> <path class="pictogram_zes" d="M3,32h13V0H3C1.343,0,0,1.343,0,3v26C0,30.657,1.343,32,3,32z"/> <path class="pictogram_drie" d="M27,25v-3h1.25c0.828,0,1.5,0.672,1.5,1.5s-0.672,1.5-1.5,1.5H27z M30,18h-3v3h3 c0.828,0,1.5-0.672,1.5-1.5S30.828,18,30,18z"/> <path class="pictogram_twee" d="M27,26.899c0,1.1-0.9,2-2,2l0,0c-1.1,0-2-0.9-2-2V17c0-1.1,0.9-2,2-2l0,0c1.1,0,2,0.9,2,2V26.899z M9,4.02V3.98C9,2.886,8.114,2,7.02,2H3.98C2.886,2,2,2.886,2,3.98v0.04C2,5.114,2.886,6,3.98,6h3.04C8.114,6,9,5.114,9,4.02z"/> <path class="pictogram_een" d="M23,17.321l-2.333,1.378l-1.264,0.747C20.404,18.052,21,16.347,21,14.5C21,9.806,17.194,6,12.5,6 C10.401,6,8.483,6.765,7,8.026V6H4v9h0.025c0.25,4.294,3.681,7.724,7.975,7.975V23h4.945l3.723,2.199L23,26.578V17.321z M12.5,20 c-1.173,0-2.259-0.372-3.152-1H10.5c0.828,0,1.5-0.672,1.5-1.5S11.328,16,10.5,16H7.213c-0.092-0.323-0.157-0.656-0.188-1H10.5 c0.828,0,1.5-0.672,1.5-1.5S11.328,12,10.5,12H7.607c0.912-1.778,2.761-3,4.893-3c3.033,0,5.5,2.467,5.5,5.5S15.533,20,12.5,20z"/> </g> </g>
</svg>